<?xml version="1.0" standalone="no"?>
<!DOCTYPE svg PUBLIC "-//W3C//DTD SVG 20010904//EN"
 "http://www.w3.org/TR/2001/REC-SVG-20010904/DTD/svg10.dtd">
<svg version="1.0" xmlns="http://www.w3.org/2000/svg"
 width="700.000000pt" height="700.000000pt" viewBox="0 0 700.000000 700.000000"
 preserveAspectRatio="xMidYMid meet">
<metadata>
Created by potrace 1.14, written by Peter Selinger 2001-2017
</metadata>
<g transform="translate(0.000000,700.000000) scale(0.100000,-0.100000)"
fill="#000000" stroke="none">
<path d="M1420 5235 c-319 -44 -651 -197 -870 -402 -25 -23 -54 -50 -65 -60
-83 -73 -219 -257 -292 -393 -189 -351 -241 -793 -139 -1185 142 -548 576
-998 1116 -1157 73 -21 75 -22 185 -44 109 -22 413 -27 520 -9 309 54 535 149
757 319 138 105 136 103 583 632 176 209 185 219 244 286 l42 47 71 -82 c38
-45 77 -91 86 -102 10 -11 82 -97 162 -190 79 -94 194 -228 254 -300 123 -146
133 -156 231 -241 227 -193 510 -320 820 -368 97 -15 358 -18 427 -6 24 5 61
11 83 14 169 24 362 93 530 188 430 244 721 656 811 1151 33 177 25 453 -17
642 -51 225 -182 494 -324 665 -236 284 -524 468 -876 559 -146 38 -218 46
-394 46 -157 0 -243 -8 -342 -31 -37 -9 -75 -17 -84 -19 -104 -21 -305 -106
-429 -182 -82 -51 -211 -149 -275 -210 -23 -21 -180 -202 -350 -403 -170 -201
-314 -370 -320 -376 -6 -7 -24 -26 -39 -44 -15 -18 -31 -29 -35 -24 -4 5 -57
67 -117 139 -60 71 -119 141 -131 155 -28 34 -324 381 -382 449 -177 209 -423
372 -702 465 -57 19 -115 37 -129 40 -14 3 -36 7 -50 10 -33 8 -78 16 -115 22
-75 12 -356 11 -445 -1z m419 -440 c162 -26 326 -91 461 -180 124 -83 172
-131 360 -355 38 -45 250 -294 324 -380 207 -242 229 -270 214 -288 -16 -19
-138 -162 -172 -202 -12 -14 -109 -128 -216 -255 -365 -431 -355 -421 -475
-507 -132 -94 -351 -186 -484 -203 -30 -4 -63 -9 -75 -11 -31 -6 -234 -5 -286
2 -147 19 -316 76 -444 149 -380 216 -605 608 -607 1058 0 59 2 110 4 115 3 4
8 31 11 61 4 29 8 56 10 60 2 3 7 23 10 45 9 57 76 221 123 302 158 269 385
453 680 549 45 15 117 33 160 40 99 17 295 17 402 0z m3691 5 c30 -6 70 -13
89 -16 118 -19 326 -113 447 -202 504 -371 644 -1052 326 -1587 -214 -361
-609 -587 -1022 -588 -68 0 -209 11 -219 18 -3 1 -24 6 -45 9 -58 9 -207 61
-278 97 -93 46 -215 131 -278 191 -31 29 -135 148 -233 263 -98 116 -186 219
-195 230 -10 11 -67 79 -127 150 -60 72 -112 132 -115 135 -3 3 -25 29 -49 58
-49 59 -51 44 20 127 15 16 145 170 290 340 144 171 289 342 322 380 123 144
256 238 467 328 39 17 219 64 265 70 75 8 285 7 335 -3z"/>
</g>
</svg>
